<?xml version="1.0" encoding="utf-8"?>
<!-- Generator: Adobe Illustrator 24.1.2, SVG Export Plug-In . SVG Version: 6.00 Build 0)  -->
<svg version="1.1" id="Layer_1" xmlns="http://www.w3.org/2000/svg" xmlns:xlink="http://www.w3.org/1999/xlink" x="0px" y="0px"
	 viewBox="0 0 80 155" style="enable-background:new 0 0 80 155;" xml:space="preserve">
<style type="text/css">
	.st0{fill:#E5D0E3;}
</style>
<g>
	<g id="S_Down_52_">
		<path class="st0" d="M40.1,4.8c9.4,0,17,7.7,17,17.2s-7.6,17.2-17,17.2s-17-7.7-17-17.2S30.7,4.8,40.1,4.8 M40.1,3.1
			c-10.4,0-18.7,8.5-18.7,18.9S29.7,41,40.1,41s18.7-8.5,18.7-18.9S50.5,3.1,40.1,3.1L40.1,3.1z"/>
	</g>
	<g id="M_Down_52_">
		<path class="st0" d="M40.1,41.3c14.6,0,26.4,12,26.4,26.7S54.7,94.7,40.1,94.7S13.7,82.7,13.7,68S25.5,41.3,40.1,41.3 M40.1,39.6
			C24.6,39.6,12,52.3,12,68s12.6,28.4,28.1,28.4S68.2,83.7,68.2,68S55.6,39.6,40.1,39.6L40.1,39.6z"/>
	</g>
	<g id="G_Down_52_">
		<path class="st0" d="M40.1,79.1c19.7,0,35.8,16.2,35.8,36.2s-16.1,36.2-35.8,36.2S4.3,135.2,4.3,115.3S20.4,79.1,40.1,79.1
			 M40.1,77.4c-20.7,0-37.5,17-37.5,37.9s16.8,37.9,37.5,37.9s37.5-17,37.5-37.9S60.8,77.4,40.1,77.4L40.1,77.4z"/>
	</g>
	<g id="S_Down_46_">
		<path class="st0" d="M40.1,117c9.4,0,17,7.7,17,17.2s-7.6,17.2-17,17.2s-17-7.7-17-17.2S30.7,117,40.1,117 M40.1,115.3
			c-10.4,0-18.7,8.5-18.7,18.9s8.4,18.9,18.7,18.9s18.7-8.5,18.7-18.9S50.5,115.3,40.1,115.3L40.1,115.3z"/>
	</g>
	<g id="M_Down_46_">
		<path class="st0" d="M40.1,61.5c14.6,0,26.4,12,26.4,26.7s-11.8,26.7-26.4,26.7s-26.4-12-26.4-26.7S25.5,61.5,40.1,61.5
			 M40.1,59.8C24.6,59.8,12,72.5,12,88.2s12.6,28.4,28.1,28.4s28.1-12.7,28.1-28.4S55.6,59.8,40.1,59.8L40.1,59.8z"/>
	</g>
	<g id="G_Down_46_">
		<path class="st0" d="M40.1,4.8C59.8,4.8,75.9,21,75.9,41S59.8,77.1,40.1,77.1S4.3,60.9,4.3,41S20.4,4.8,40.1,4.8 M40.1,3.1
			C19.4,3.1,2.6,20.1,2.6,41s16.8,37.9,37.5,37.9s37.5-17,37.5-37.9S60.8,3.1,40.1,3.1L40.1,3.1z"/>
	</g>
</g>
</svg>
